<svg width="81" height="28" viewBox="0 0 81 28" fill="none" xmlns="http://www.w3.org/2000/svg">
<path fill-rule="evenodd" clip-rule="evenodd" d="M14.8159 26.186V16.3542C14.8159 16.3098 14.8272 16.266 14.8484 16.227L23.5238 0.392427C23.6207 0.215618 23.4919 0 23.2896 0H16.9942C16.8926 0 16.7999 0.0573795 16.7549 0.148119L12.0176 9.71927C11.9198 9.91676 11.6369 9.91676 11.5391 9.71927L6.80164 0.148119C6.75683 0.0573795 6.66409 0 6.56252 0H0.267108C0.0646428 0 -0.0639651 0.215618 0.0329098 0.392427L8.70819 16.227C8.72953 16.266 8.74081 16.3098 8.74081 16.3542V26.186C8.74081 26.3325 8.86015 26.4514 9.00753 26.4514H14.5492C14.6966 26.4514 14.8159 26.3325 14.8159 26.186ZM45.2597 12.9106C45.2597 12.7641 45.3791 12.6452 45.5264 12.6452H49.9858C50.059 12.6452 50.1184 12.5861 50.1184 12.5132L49.1014 7.33569C49.1014 7.26285 49.042 7.20369 48.9689 7.20369H45.5264C45.3791 7.20369 45.2597 7.08493 45.2597 6.93825V2.86353C45.2597 2.77513 45.1741 2.71174 45.0891 2.73709L39.6588 2.17075C39.6027 2.18754 39.5644 2.23892 39.5644 2.29718V6.93825C39.5644 7.08493 39.4448 7.20369 39.2976 7.20369H34.581C34.5357 7.20369 34.493 7.21495 34.4556 7.23482H31.1545V7.81495C29.6808 7.13529 28.0105 6.8057 26.2499 6.9427C21.4137 7.31878 17.5208 11.2688 17.2346 16.0883C16.898 21.753 21.4143 26.4514 27.0335 26.4514C28.5057 26.4514 29.9012 26.1267 31.1545 25.5487V26.1288H36.8502V12.6452H39.2976C39.4448 12.6452 39.5644 12.7641 39.5644 12.9106V19.3337C39.5644 24.5953 42.653 26.8292 49.9977 26.1097C50.0657 26.1031 50.1184 26.0459 50.1184 25.9779L49.8815 21.0982C49.8815 21.0224 49.8166 20.9624 49.7405 20.9667C47.3228 21.1034 45.2597 20.9277 45.2597 19.3337V12.9106ZM22.9068 17.7851C23.3058 19.2351 24.4689 20.3925 25.926 20.789C29.1086 21.6552 32.0318 18.7455 31.1595 15.5778C30.7603 14.1281 29.5973 12.9709 28.1404 12.5745C24.9583 11.7087 22.0353 14.6178 22.9068 17.7851ZM79.855 12.0596C80.7196 12.6878 81.1132 13.7939 80.8375 14.82C80.6211 15.6259 80.3545 16.2486 79.7675 17.4001L79.3577 18.1961C79.3077 18.2938 79.2642 18.3796 79.2221 18.4635L79.0721 18.7638C77.6944 21.5119 76.7541 23.0641 75.4215 24.5508C73.9324 26.2119 72.3406 27.2387 70.5637 27.6688C69.6525 27.8892 68.7668 27.9999 67.9082 27.9999C65.4559 27.9999 63.2504 27.0971 61.3519 25.3214C60.3059 24.3431 59.6084 23.054 59.1565 21.2923C58.9231 20.3823 58.792 19.4775 58.6882 18.2893L58.6329 17.6484C58.5783 17.0267 58.5193 16.3928 58.4492 15.6668L58.3619 14.7734L58.23 13.4596C58.1679 12.8586 58.1194 12.4312 58.0594 11.9517L58.016 11.6103L57.9852 11.3744L57.9233 10.9102C57.8964 10.7115 57.868 10.5042 57.8361 10.2744L57.5581 8.29165C57.5477 8.22014 57.5364 8.14595 57.5221 8.05592L57.4392 7.53784C57.3749 7.12415 57.3455 6.88011 57.3275 6.58482C57.255 5.3951 57.9628 4.38613 59.1358 3.98401C59.6463 3.80916 60.1852 3.80172 60.6866 3.94138L60.7249 3.95235L60.7235 3.90791C60.7004 2.99662 61.153 2.13636 61.9435 1.63407L61.9887 1.60602C62.9138 1.04262 64.0644 1.09682 64.9726 1.73686C65.5464 2.14061 65.8845 2.71536 66.0232 3.48858L66.8261 7.92648L67.0355 9.07998L68.2658 3.13207L68.4451 2.23471C68.6923 0.965659 69.7556 0.0653485 71.0361 0.0427591L71.0992 0.0423317C72.4296 0.048856 73.5571 1.02112 73.7196 2.31173C73.733 2.41864 73.738 2.52679 73.7358 2.63869L73.7351 2.66072L73.7836 2.64834C74.2586 2.53117 74.7617 2.54135 75.2325 2.6956L75.2829 2.71268C76.6119 3.17956 77.3081 4.48338 77.0109 5.90322L76.2999 9.28895C76.1451 10.0331 76.0135 10.676 75.8884 11.3019L75.8149 11.6712C75.7427 12.0363 75.674 12.3895 75.6083 12.7337L75.5757 12.9051C75.5283 13.1549 75.4832 13.3977 75.4404 13.6342L75.4014 13.8514L76.0156 12.7292C76.0249 12.7121 76.0351 12.6954 76.0461 12.6793L76.0631 12.6555C76.9857 11.4291 78.5765 11.163 79.8134 12.0299L79.855 12.0596ZM71.0961 1.26243H71.0854C70.3795 1.26243 69.7956 1.74944 69.6561 2.46569L69.5465 3.01936C69.5114 3.19414 69.4734 3.38045 69.4292 3.5959L67.6017 12.4308C67.4649 13.088 66.5121 13.0768 66.391 12.4166L65.9838 10.187L64.8088 3.70174C64.7241 3.22924 64.5535 2.93919 64.2574 2.73085C63.747 2.37118 63.1324 2.34223 62.6349 2.64519C62.1287 2.95312 61.8728 3.52256 61.9802 4.10422L62.0839 4.68174C62.1046 4.7999 62.1272 4.92928 62.1527 5.07647C62.2568 5.67687 61.5087 6.0355 61.0963 5.59827L61.0778 5.57785C60.6827 5.12431 60.0758 4.95321 59.5394 5.13691C58.8806 5.36277 58.5199 5.87696 58.5586 6.51138L58.5652 6.6085C58.5822 6.83322 58.6108 7.05188 58.6681 7.41583L58.7532 7.94757C58.7627 8.00897 58.771 8.06438 58.779 8.11883L59.0579 10.1089C59.086 10.3111 59.1114 10.4961 59.1355 10.6732L59.2082 11.2173C59.2242 11.3385 59.2395 11.4568 59.2544 11.5728L59.3127 12.0397C59.3775 12.5735 59.4326 13.0856 59.514 13.8967L59.6651 15.4292C59.7329 16.1278 59.7903 16.7403 59.8431 17.3344L59.9065 18.0636C60.0069 19.2522 60.1306 20.1296 60.3519 20.9923C60.7498 22.5434 61.3369 23.6283 62.1992 24.4349C63.8729 26.0004 65.7772 26.7799 67.9082 26.7799C68.6656 26.7799 69.4532 26.6815 70.2707 26.4837C71.7877 26.1165 73.1673 25.2266 74.4988 23.7414C75.7062 22.3942 76.5871 20.9573 77.8609 18.4331L78.1939 17.7696C78.2272 17.704 78.2627 17.6346 78.3022 17.5578L78.588 17.0038C79.1919 15.8274 79.4484 15.2409 79.6456 14.5067C79.7875 13.9784 79.5903 13.4021 79.1571 13.0671L79.125 13.043L79.0899 13.0181C78.429 12.5623 77.6324 12.6798 77.1077 13.314L77.0775 13.3513L74.8421 17.4357C74.5256 18.014 73.6431 17.7542 73.684 17.1111L73.6864 17.0829C73.8198 15.8 74.0283 14.4622 74.3337 12.8383L74.4297 12.3333C74.5082 11.925 74.5908 11.5039 74.6785 11.0652L74.821 10.3589C74.8699 10.1184 74.9205 9.87143 74.9736 9.61376L75.8033 5.65579C75.9783 4.81964 75.605 4.12059 74.8702 3.86245C74.3955 3.69572 73.8285 3.81968 73.4312 4.17545L73.3976 4.20651C72.9822 4.6022 72.2998 4.26729 72.3559 3.7094L72.3773 3.54722L72.3822 3.50606C72.3876 3.45945 72.3941 3.4116 72.4018 3.35999L72.4224 3.22967L72.466 2.9671C72.4829 2.85993 72.4921 2.78739 72.4977 2.71499L72.4993 2.69324C72.5053 2.60484 72.5041 2.52911 72.4957 2.46245C72.4104 1.78516 71.8083 1.26593 71.0961 1.26243Z" fill="white"/>
</svg>
