<svg xmlns="http://www.w3.org/2000/svg" xmlns:xlink="http://www.w3.org/1999/xlink" width="107" height="63" viewBox="0 0 107 63">
    <g fill="#120640" fill-rule="evenodd" transform="translate(-1 -3)">
        <g fill="#120640" transform="translate(1.14 3.4)">
            <path fill="#120640" d="M56.565 26.287c-4.603 0-7.503 1.784-8.766 4.87-.996 2.433-1.026 4.917-.156 7.385.772 2.19 2.269 3.746 4.425 4.619 1.819.736 3.706.845 5.624.444 1.665-.349 3.11-1.107 4.263-2.368 2.56-2.8 2.993-7.763.944-11.114-1.653-2.703-4.194-3.79-6.334-3.836m18.407 1.168v24.821c0 .75-.001.75-.733.75-3.149 0-6.298-.01-9.447.011-.496.003-.648-.146-.62-.63.037-.64.019-1.284 0-1.926-.004-.14-.115-.275-.176-.412-.122.058-.27.088-.36.177-2.612 2.579-5.827 3.68-9.42 3.757-7.13.15-12.232-3.216-15.6-9.318-3.735-6.767-3.017-15.742 1.659-21.889 2.729-3.588 6.3-5.905 10.794-6.54 4.137-.586 8.074.008 11.5 2.651.38.294.716.643 1.086.952.097.08.279.176.354.136.093-.05.16-.23.164-.357.016-.626.007-1.253.008-1.88 0-.697.001-.697.68-.697h16.386c.693 0 .694-.001.694-.69V8.08c0-.616.024-.63.632-.494 3.272.727 6.544 1.456 9.819 2.17.329.073.345.264.344.524-.004 2.056.013 4.113-.013 6.169-.006.497.155.628.635.621 1.702-.025 3.405-.003 5.108-.015.336-.003.515.081.617.433.898 3.095 1.818 6.184 2.727 9.275.052.179.075.366.122.6-.26.017-.464.04-.668.04-2.619.002-5.238 0-7.856.001-.662 0-.674.014-.674.674 0 3.985.011 7.97-.007 11.954-.005 1.286.6 2.126 1.738 2.625 1.216.532 2.511.64 3.816.656.9.011 1.8-.004 2.698-.037.367-.013.516.102.532.48.126 2.934.263 5.868.406 8.801.015.305-.04.486-.39.517-3.854.337-7.698.454-11.47-.632-2.91-.838-5.264-2.423-6.677-5.194-1.005-1.971-1.396-4.099-1.417-6.283-.04-4.289-.018-8.579-.022-12.868 0-.677-.015-.693-.71-.693-1.976 0-3.952 0-5.928.003-.093 0-.186.026-.331.048"/>
            <path fill="#120640" d="M21.088 43.96c0-2.988.01-5.976-.013-8.964-.003-.381-.103-.801-.285-1.135-5.379-9.896-10.773-19.783-16.166-29.672-.435-.799-.413-.84.482-.84 3.792 0 7.583.012 11.375-.013.576-.003.875.168 1.135.7 2.537 5.206 5.106 10.396 7.665 15.59.383.777.754 1.561 1.15 2.331.095.185.27.328.408.491.125-.156.282-.296.369-.472 2.955-5.983 5.91-11.966 8.841-17.962.25-.51.543-.681 1.105-.678 3.824.025 7.648.013 11.471.014.786 0 .826.062.46.734-5.399 9.904-10.8 19.806-16.185 29.717-.196.36-.308.812-.31 1.222-.02 5.992-.013 11.985-.013 17.978 0 .7 0 .7-.674.7h-10.17c-.643 0-.645-.001-.645-.63v-9.11"/>
        </g>
    </g>
</svg>
